<?xml version="1.0" encoding="utf-8"?>
<svg width="72.65784px" height="55.490906px" viewBox="0 0 72.65784 55.490906" version="1.1" xmlns:xlink="http://www.w3.org/1999/xlink" xmlns="http://www.w3.org/2000/svg">
  <g id="Icons">
    <g id="crutches">
      <path d="M41.5336 7.36928L43.5321 8.20998C44.5503 8.63256 45.3038 9.51823 45.5577 10.591C45.8219 11.6613 45.5563 12.7933 44.8437 13.6344L43.9953 14.6456C43.9671 14.6785 43.9355 14.7082 43.9008 14.7341L31.2033 29.8665C30.8831 30.2481 30.4355 30.5008 29.9433 30.578L23.6962 31.5579L17.569 38.8601C17.1386 39.3699 16.5054 39.6643 15.8381 39.6647C15.721 39.6648 15.6041 39.6555 15.4884 39.6371L13.4908 39.3195L7.89034 45.9938C7.87949 46.0328 7.86461 46.0706 7.84594 46.1066L5.59856 50.334C5.3032 50.9084 4.76681 51.3209 4.13584 51.4589C4.02904 51.4799 3.92045 51.4906 3.81159 51.4908C3.47517 51.4947 3.14837 51.3786 2.88992 51.1632L0.508982 49.1654C0.168262 48.8722 -0.0188378 48.4388 0.00150219 47.9898C0.0278922 47.3444 0.340972 46.7445 0.855312 46.3538L4.6282 43.4065C4.66035 43.3818 4.69498 43.3606 4.73151 43.3431L10.2709 36.7416L9.55095 34.655C9.29505 33.9064 9.44825 33.0785 9.95509 32.4711L16.0823 25.169L15.9625 18.8466C15.953 18.3485 16.1242 17.8638 16.4445 17.4822L29.216 2.26164C29.2188 2.25814 29.2206 2.25404 29.2236 2.2506L30.0729 1.23846C30.7806 0.395079 31.8468 -0.062051 32.9456 0.00679897C34.0444 0.075649 35.0452 0.662269 35.642 1.58738L36.8232 3.41798C37.9577 5.18102 39.6001 6.55871 41.5336 7.36928ZM43.4926 13.4116L41.6758 11.8871C41.6263 11.8466 41.5706 11.8145 41.5108 11.792L32.4538 4.19222C32.4214 4.13743 32.3803 4.08831 32.332 4.04677L30.5259 2.53124L30.9754 1.9958C31.4426 1.43901 32.1464 1.1372 32.8718 1.18264C33.5972 1.22807 34.2579 1.61533 34.652 2.22607L34.652 2.22614L35.8332 4.05673C37.0961 6.01934 38.9243 7.55292 41.0767 8.45519L43.0752 9.29589C43.7453 9.57777 44.2417 10.1612 44.4125 10.8678C44.5833 11.5744 44.4083 12.3201 43.9411 12.877L43.4926 13.4116ZM17.1267 25.7573C17.2182 25.6483 17.2671 25.5098 17.2644 25.3675L17.1404 18.8242C17.1364 18.6108 17.2097 18.4031 17.3469 18.2395L29.7484 3.46005L31.1022 4.59602L19.0556 18.9527C18.9641 19.0617 18.9152 19.2002 18.9178 19.3425L19.0418 25.8856C19.0459 26.0991 18.9725 26.3068 18.8353 26.4703L11.1383 35.6432L10.6647 34.2706C10.5426 33.9134 10.6156 33.5184 10.8574 33.2285L10.8575 33.2286L17.1267 25.7573ZM32.0047 5.35322L27.9195 10.2218L36.3607 17.305L40.4459 12.4362L32.0047 5.35322ZM26.0262 12.4783L27.1622 11.1245L35.6033 18.2075L34.4674 19.5613L26.0262 12.4783ZM29.7608 29.4139L23.2956 30.428C23.155 30.4501 23.0271 30.5222 22.9356 30.6313L16.6664 38.1026C16.423 38.3913 16.0465 38.5319 15.6734 38.4736L14.3739 38.2669L22.3061 28.8137C22.3612 28.7927 22.4182 28.7773 22.4764 28.7677L28.9417 27.7536C29.0823 27.7316 29.2101 27.6594 29.3016 27.5504L41.3484 13.1936L42.7022 14.3296L30.3007 29.109C30.1636 29.2726 29.9718 29.3809 29.7608 29.4139ZM22.0759 27.6516L20.2106 26.0865C20.2177 26.0123 20.2207 25.9379 20.2198 25.8634L20.1 19.541L25.2689 13.3808L33.7101 20.4638L28.5411 26.624L22.294 27.6039C22.2205 27.6159 22.1477 27.6318 22.0759 27.6516ZM19.7695 27.2545L5.85996 43.8313L7.21377 44.9673L12.5321 38.6291C12.5393 38.5028 12.5871 38.3822 12.6683 38.2852L21.034 28.3154L19.7695 27.2545ZM3.64726 50.2609C3.72491 50.3125 3.82123 50.3277 3.91104 50.3025C4.19174 50.23 4.4276 50.04 4.55829 49.7812L6.58175 45.9749L4.97759 44.6288L1.58054 47.2825C1.3483 47.4561 1.20214 47.7214 1.17942 48.0105C1.17031 48.1033 1.20202 48.1954 1.26631 48.263L3.64726 50.2609Z" id="Path-2395" fill="#1466CF" fill-rule="evenodd" stroke="none" />
    </g>
    <g id="crutches" transform="translate(27 3.9999998)">
      <path d="M41.5336 7.36928L43.5321 8.20998C44.5503 8.63256 45.3038 9.51823 45.5577 10.591C45.8219 11.6613 45.5563 12.7933 44.8437 13.6344L43.9953 14.6456C43.9671 14.6785 43.9355 14.7082 43.9008 14.7341L31.2033 29.8665C30.8831 30.2481 30.4355 30.5008 29.9433 30.578L23.6962 31.5579L17.569 38.8601C17.1386 39.3699 16.5054 39.6643 15.8381 39.6647C15.721 39.6648 15.6041 39.6555 15.4884 39.6371L13.4908 39.3195L7.89034 45.9938C7.87949 46.0328 7.86461 46.0706 7.84594 46.1066L5.59856 50.334C5.3032 50.9084 4.76681 51.3209 4.13584 51.4589C4.02904 51.4799 3.92045 51.4906 3.81159 51.4908C3.47517 51.4947 3.14837 51.3786 2.88992 51.1632L0.508982 49.1654C0.168262 48.8722 -0.0188378 48.4388 0.00150219 47.9898C0.0278922 47.3444 0.340972 46.7445 0.855312 46.3538L4.6282 43.4065C4.66035 43.3818 4.69498 43.3606 4.73151 43.3431L10.2709 36.7416L9.55095 34.655C9.29505 33.9064 9.44825 33.0785 9.95509 32.4711L16.0823 25.169L15.9625 18.8466C15.953 18.3485 16.1242 17.8638 16.4445 17.4822L29.216 2.26164C29.2188 2.25814 29.2206 2.25404 29.2236 2.2506L30.0729 1.23846C30.7806 0.395079 31.8468 -0.062051 32.9456 0.00679897C34.0444 0.075649 35.0452 0.662269 35.642 1.58738L36.8232 3.41798C37.9577 5.18102 39.6001 6.55871 41.5336 7.36928ZM43.4926 13.4116L41.6758 11.8871C41.6263 11.8466 41.5706 11.8145 41.5108 11.792L32.4538 4.19222C32.4214 4.13743 32.3803 4.08831 32.332 4.04677L30.5259 2.53124L30.9754 1.9958C31.4426 1.43901 32.1464 1.1372 32.8718 1.18264C33.5972 1.22807 34.2579 1.61533 34.652 2.22607L34.652 2.22614L35.8332 4.05673C37.0961 6.01934 38.9243 7.55292 41.0767 8.45519L43.0752 9.29589C43.7453 9.57777 44.2417 10.1612 44.4125 10.8678C44.5833 11.5744 44.4083 12.3201 43.9411 12.877L43.4926 13.4116ZM17.1267 25.7573C17.2182 25.6483 17.2671 25.5098 17.2644 25.3675L17.1404 18.8242C17.1364 18.6108 17.2097 18.4031 17.3469 18.2395L29.7484 3.46005L31.1022 4.59602L19.0556 18.9527C18.9641 19.0617 18.9152 19.2002 18.9178 19.3425L19.0418 25.8856C19.0459 26.0991 18.9725 26.3068 18.8353 26.4703L11.1383 35.6432L10.6647 34.2706C10.5426 33.9134 10.6156 33.5184 10.8574 33.2285L10.8575 33.2286L17.1267 25.7573ZM32.0047 5.35322L27.9195 10.2218L36.3607 17.305L40.4459 12.4362L32.0047 5.35322ZM26.0262 12.4783L27.1622 11.1245L35.6033 18.2075L34.4674 19.5613L26.0262 12.4783ZM29.7608 29.4139L23.2956 30.428C23.155 30.4501 23.0271 30.5222 22.9356 30.6313L16.6664 38.1026C16.423 38.3913 16.0465 38.5319 15.6734 38.4736L14.3739 38.2669L22.3061 28.8137C22.3612 28.7927 22.4182 28.7773 22.4764 28.7677L28.9417 27.7536C29.0823 27.7316 29.2101 27.6594 29.3016 27.5504L41.3484 13.1936L42.7022 14.3296L30.3007 29.109C30.1636 29.2726 29.9718 29.3809 29.7608 29.4139ZM22.0759 27.6516L20.2106 26.0865C20.2177 26.0123 20.2207 25.9379 20.2198 25.8634L20.1 19.541L25.2689 13.3808L33.7101 20.4638L28.5411 26.624L22.294 27.6039C22.2205 27.6159 22.1477 27.6318 22.0759 27.6516ZM19.7695 27.2545L5.85996 43.8313L7.21377 44.9673L12.5321 38.6291C12.5393 38.5028 12.5871 38.3822 12.6683 38.2852L21.034 28.3154L19.7695 27.2545ZM3.64726 50.2609C3.72491 50.3125 3.82123 50.3277 3.91104 50.3025C4.19174 50.23 4.4276 50.04 4.55829 49.7812L6.58175 45.9749L4.97759 44.6288L1.58054 47.2825C1.3483 47.4561 1.20214 47.7214 1.17942 48.0105C1.17031 48.1033 1.20202 48.1954 1.26631 48.263L3.64726 50.2609Z" id="Path-2395" fill="#1466CF" fill-rule="evenodd" stroke="none" />
    </g>
  </g>
</svg>