<?xml version="1.0" encoding="utf-8"?>
<svg width="108.000244px" height="39.000244px" viewBox="0 0 108.000244 39.000244" version="1.1" xmlns:xlink="http://www.w3.org/1999/xlink" xmlns="http://www.w3.org/2000/svg">
  <defs>
    <path d="M0 0L108 0L108 39.0003L0 39.0003L0 0Z" id="path_1" />
    <clipPath id="clip_1">
      <use xlink:href="#path_1" clip-rule="evenodd" fill-rule="evenodd" />
    </clipPath>
  </defs>
  <g id="Logo">
    <path d="M0 0L108 0L108 39.0003L0 39.0003L0 0Z" id="Logo-(BackgroundMask)" fill="none" fill-rule="evenodd" stroke="none" />
    <g clip-path="url(#clip_1)">
      <path d="M12.0006 27.001L12.0006 30.5002C12.0006 34.6357 15.3649 38 19.5002 38C23.6356 38 27 34.6357 27 30.5002L27 27L30.5001 27C34.6359 27 38.0006 23.6357 38.0006 19.5005C38.0006 15.3645 34.6359 11.9998 30.5001 11.9998L27 11.9998L27 7.49975C27 3.36425 23.6356 -5.85939e-06 19.5002 -5.85939e-06C15.3649 -5.85939e-06 12.0006 3.36425 12.0006 7.49975L12.0006 11.9998L7.50061 11.9998C3.36475 11.9998 4.14063e-06 15.3645 4.14063e-06 19.5005C4.14063e-06 23.6357 3.36475 27 7.50061 27L11.9996 27.001L12.0006 27.001ZM12.0006 11.9998L12.0006 27L27 27L27 11.9998L12.0006 11.9998Z" id="Exclusion-4" fill="#3D5A80" fill-rule="evenodd" stroke="none" />
      <g id="SigmaClinic" transform="translate(53.000244 0.00024414062)">
        <g transform="translate(0, 4.0160003)" fill="#211E1E" stroke="none" id="Sigma">
          <path d="M4.944 15.616Q3.664 15.616 2.496 15.224Q1.328 14.832 0.656 14.208L1.248 12.96Q1.888 13.52 2.88 13.888Q3.872 14.256 4.944 14.256Q5.92 14.256 6.528 14.032Q7.136 13.808 7.424 13.416Q7.712 13.024 7.712 12.528Q7.712 11.952 7.336 11.6Q6.96 11.248 6.36 11.032Q5.76 10.816 5.04 10.656Q4.32 10.496 3.592 10.28Q2.864 10.064 2.264 9.728Q1.664 9.392 1.296 8.824Q0.928 8.256 0.928 7.36Q0.928 6.496 1.384 5.768Q1.84 5.04 2.792 4.6Q3.744 4.16 5.216 4.16Q6.192 4.16 7.152 4.416Q8.112 4.672 8.816 5.152L8.288 6.432Q7.568 5.952 6.768 5.736Q5.968 5.52 5.216 5.52Q4.272 5.52 3.664 5.76Q3.056 6 2.776 6.4Q2.496 6.8 2.496 7.296Q2.496 7.888 2.872 8.24Q3.248 8.592 3.848 8.8Q4.448 9.008 5.168 9.176Q5.888 9.344 6.616 9.552Q7.344 9.76 7.944 10.096Q8.544 10.432 8.912 10.992Q9.28 11.552 9.28 12.432Q9.28 13.28 8.816 14.008Q8.352 14.736 7.384 15.176Q6.416 15.616 4.944 15.616ZM11.808 15.488L11.808 7.008L13.344 7.008L13.344 15.488L11.808 15.488ZM12.576 5.376Q12.128 5.376 11.832 5.088Q11.536 4.8 11.536 4.384Q11.536 3.952 11.832 3.664Q12.128 3.376 12.576 3.376Q13.024 3.376 13.32 3.656Q13.616 3.936 13.616 4.352Q13.616 4.784 13.328 5.08Q13.04 5.376 12.576 5.376ZM20.4 18.688Q19.232 18.688 18.136 18.36Q17.04 18.032 16.352 17.424L17.088 16.24Q17.68 16.752 18.544 17.048Q19.408 17.344 20.352 17.344Q21.856 17.344 22.56 16.64Q23.264 15.936 23.264 14.496L23.264 12.704L23.424 11.024L23.344 9.328L23.344 7.008L24.8 7.008L24.8 14.336Q24.8 16.576 23.68 17.632Q22.56 18.688 20.4 18.688ZM20.208 15.136Q18.976 15.136 18.008 14.616Q17.04 14.096 16.472 13.168Q15.904 12.24 15.904 11.024Q15.904 9.792 16.472 8.872Q17.04 7.952 18.008 7.44Q18.976 6.928 20.208 6.928Q21.296 6.928 22.192 7.368Q23.088 7.808 23.624 8.72Q24.16 9.632 24.16 11.024Q24.16 12.4 23.624 13.312Q23.088 14.224 22.192 14.68Q21.296 15.136 20.208 15.136ZM20.384 13.792Q21.232 13.792 21.888 13.44Q22.544 13.088 22.92 12.464Q23.296 11.84 23.296 11.024Q23.296 10.208 22.92 9.584Q22.544 8.96 21.888 8.616Q21.232 8.272 20.384 8.272Q19.536 8.272 18.872 8.616Q18.208 8.96 17.832 9.584Q17.456 10.208 17.456 11.024Q17.456 11.84 17.832 12.464Q18.208 13.088 18.872 13.44Q19.536 13.792 20.384 13.792ZM38.752 6.928Q39.776 6.928 40.56 7.328Q41.344 7.728 41.784 8.544Q42.224 9.36 42.224 10.608L42.224 15.488L40.688 15.488L40.688 10.784Q40.688 9.552 40.112 8.928Q39.536 8.304 38.496 8.304Q37.728 8.304 37.152 8.624Q36.576 8.944 36.264 9.568Q35.952 10.192 35.952 11.12L35.952 15.488L34.416 15.488L34.416 10.784Q34.416 9.552 33.848 8.928Q33.28 8.304 32.224 8.304Q31.472 8.304 30.896 8.624Q30.32 8.944 30 9.568Q29.68 10.192 29.68 11.12L29.68 15.488L28.144 15.488L28.144 7.008L29.616 7.008L29.616 9.264L29.376 8.688Q29.776 7.856 30.608 7.392Q31.44 6.928 32.544 6.928Q33.76 6.928 34.64 7.528Q35.52 8.128 35.792 9.344L35.168 9.088Q35.552 8.112 36.512 7.52Q37.472 6.928 38.752 6.928ZM50.736 15.488L50.736 13.696L50.656 13.36L50.656 10.304Q50.656 9.328 50.088 8.792Q49.52 8.256 48.384 8.256Q47.632 8.256 46.912 8.504Q46.192 8.752 45.696 9.168L45.056 8.016Q45.712 7.488 46.632 7.208Q47.552 6.928 48.56 6.928Q50.304 6.928 51.248 7.776Q52.192 8.624 52.192 10.368L52.192 15.488L50.736 15.488ZM47.952 15.584Q47.008 15.584 46.296 15.264Q45.584 14.944 45.2 14.376Q44.816 13.808 44.816 13.088Q44.816 12.4 45.144 11.84Q45.472 11.28 46.216 10.944Q46.96 10.608 48.224 10.608L50.912 10.608L50.912 11.712L48.288 11.712Q47.136 11.712 46.736 12.096Q46.336 12.48 46.336 13.024Q46.336 13.648 46.832 14.024Q47.328 14.4 48.208 14.4Q49.072 14.4 49.72 14.016Q50.368 13.632 50.656 12.896L50.96 13.952Q50.656 14.704 49.888 15.144Q49.12 15.584 47.952 15.584Z" />
        </g>
        <g transform="translate(0, 23.520002)" fill="#211E1E" stroke="none" id="Clinic">
          <path d="M6.688 15.616Q5.408 15.616 4.328 15.192Q3.248 14.768 2.456 13.992Q1.664 13.216 1.216 12.176Q0.768 11.136 0.768 9.888Q0.768 8.64 1.216 7.6Q1.664 6.56 2.464 5.784Q3.264 5.008 4.344 4.584Q5.424 4.16 6.704 4.16Q8 4.16 9.096 4.6Q10.192 5.04 10.96 5.904L9.92 6.912Q9.28 6.24 8.48 5.912Q7.68 5.584 6.768 5.584Q5.824 5.584 5.016 5.904Q4.208 6.224 3.616 6.8Q3.024 7.376 2.696 8.168Q2.368 8.96 2.368 9.888Q2.368 10.816 2.696 11.608Q3.024 12.4 3.616 12.976Q4.208 13.552 5.016 13.872Q5.824 14.192 6.768 14.192Q7.68 14.192 8.48 13.864Q9.28 13.536 9.92 12.848L10.96 13.856Q10.192 14.72 9.096 15.168Q8 15.616 6.688 15.616ZM13.44 15.488L13.44 3.616L14.976 3.616L14.976 15.488L13.44 15.488ZM18.32 15.488L18.32 7.008L19.856 7.008L19.856 15.488L18.32 15.488ZM19.088 5.376Q18.64 5.376 18.344 5.088Q18.048 4.8 18.048 4.384Q18.048 3.952 18.344 3.664Q18.64 3.376 19.088 3.376Q19.536 3.376 19.832 3.656Q20.128 3.936 20.128 4.352Q20.128 4.784 19.84 5.08Q19.552 5.376 19.088 5.376ZM27.728 6.928Q28.768 6.928 29.56 7.328Q30.352 7.728 30.8 8.544Q31.248 9.36 31.248 10.608L31.248 15.488L29.712 15.488L29.712 10.784Q29.712 9.552 29.112 8.928Q28.512 8.304 27.424 8.304Q26.608 8.304 26 8.624Q25.392 8.944 25.064 9.568Q24.736 10.192 24.736 11.12L24.736 15.488L23.2 15.488L23.2 7.008L24.672 7.008L24.672 9.296L24.432 8.688Q24.848 7.856 25.712 7.392Q26.576 6.928 27.728 6.928ZM34.512 15.488L34.512 7.008L36.048 7.008L36.048 15.488L34.512 15.488ZM35.28 5.376Q34.832 5.376 34.536 5.088Q34.24 4.8 34.24 4.384Q34.24 3.952 34.536 3.664Q34.832 3.376 35.28 3.376Q35.728 3.376 36.024 3.656Q36.32 3.936 36.32 4.352Q36.32 4.784 36.032 5.08Q35.744 5.376 35.28 5.376ZM43.088 15.584Q41.792 15.584 40.776 15.024Q39.76 14.464 39.184 13.488Q38.608 12.512 38.608 11.248Q38.608 9.984 39.184 9.008Q39.76 8.032 40.776 7.48Q41.792 6.928 43.088 6.928Q44.24 6.928 45.144 7.384Q46.048 7.84 46.544 8.736L45.376 9.488Q44.96 8.864 44.36 8.568Q43.76 8.272 43.072 8.272Q42.24 8.272 41.584 8.64Q40.928 9.008 40.544 9.672Q40.16 10.336 40.16 11.248Q40.16 12.16 40.544 12.832Q40.928 13.504 41.584 13.872Q42.24 14.24 43.072 14.24Q43.76 14.24 44.36 13.944Q44.96 13.648 45.376 13.024L46.544 13.76Q46.048 14.64 45.144 15.112Q44.24 15.584 43.088 15.584Z" />
        </g>
      </g>
    </g>
  </g>
</svg>