<?xml version="1.0" encoding="utf-8"?>
<svg width="62.54364px" height="54.374268px" viewBox="0 0 62.54364 54.374268" version="1.1" xmlns:xlink="http://www.w3.org/1999/xlink" xmlns="http://www.w3.org/2000/svg">
  <g id="Icon">
    <path d="M34.9158 6.14657C35.027 5.78526 36.6737 0.692211 40.3007 0.0807608C42.6978 -0.343079 45.3173 1.35229 48.0549 5.09739C55.0448 14.6721 66.4608 38.0042 61.201 48.6976C59.3944 52.3385 55.8717 54.2423 50.723 54.3534L50.0282 54.3534C34.2279 54.3534 33.005 42.5553 33.005 42.465C32.9147 41.7702 31.3514 29.1939 32.6368 17.236L32.6368 17.1456L31.393 15.8185L31.1846 15.8185L29.9409 17.1456L29.9409 17.236C31.1985 29.2217 29.6351 41.791 29.5448 42.4858C29.5309 42.5623 28.3219 54.3743 12.5216 54.3743L11.8268 54.3743C6.67816 54.277 3.14845 52.3662 1.34886 48.7184C-3.92485 38.0042 7.4911 14.6721 14.481 5.09044C17.2256 1.34534 19.8451 -0.350029 22.27 0.0599208C25.897 0.678311 27.5437 5.76442 27.6549 6.12573C27.9537 6.98036 28.2177 7.86279 28.4539 8.76606L28.4887 8.91197L28.4887 1.78308L34.082 1.78308L34.082 8.93281L34.1167 8.7869C34.3599 7.87668 34.624 6.99425 34.9158 6.14657ZM11.8615 52.9569C7.26875 52.8596 4.15594 51.2198 2.59953 48.0931C-2.52132 37.7124 9.65894 14.0398 15.5997 5.91732C17.7745 2.95042 19.8173 1.40097 21.5613 1.40097C21.7173 1.40197 21.873 1.41591 22.0268 1.44266C24.8686 1.92209 26.3069 6.50792 26.3208 6.55656C27.0243 8.65281 27.5587 10.8021 27.9189 12.9837L27.9189 13.074C27.1893 14.0954 25.9526 15.8533 24.6671 17.7502L24.6324 17.7502C23.5825 17.6204 22.649 17.0193 22.0963 16.1173C21.553 15.094 21.312 13.9373 21.4015 12.7822L21.9295 12.7822C23.069 12.7822 24.9312 12.5042 25.765 10.8297L24.5212 10.2113C23.9584 11.3369 22.4367 11.4273 21.6863 11.3925L21.603 11.3925C21.7137 10.6604 21.881 9.93793 22.1032 9.23162L20.79 8.78695C20.7205 8.98845 19.1294 13.7758 20.9498 16.8191L21.1235 17.0901L21.0749 17.0901C20.2578 16.973 19.4337 16.9127 18.6083 16.9094L18.6083 16.833C18.6309 14.9538 17.8767 13.1486 16.5238 11.8442L15.6414 12.9142C16.6931 13.9661 17.2702 15.4014 17.2395 16.8886L17.2395 16.965C14.7726 17.0958 12.3992 17.9514 10.4163 19.4247L11.3196 20.4808C12.7686 19.4078 14.4658 18.7193 16.2528 18.4797L16.2042 18.5353C15.3496 19.5776 14.4949 21.0645 15.1133 22.4263L16.3779 21.8496C15.8915 20.7796 17.566 19.0009 18.3026 18.3755L18.379 18.306C20.2018 18.2973 22.0154 18.5668 23.7569 19.1051L23.8125 19.1051C22.1032 21.6898 20.4843 24.3232 19.991 25.699L19.9423 25.8449C19.7617 26.1575 19.5671 26.5397 19.3795 26.9357L19.2961 26.9357C18.1287 26.821 16.9502 26.9271 15.822 27.2484L15.822 27.1998C14.1892 24.893 9.68674 26.2062 9.15172 26.3729L9.56167 27.7C10.5553 27.3943 13.3068 26.8454 14.4254 27.7556L14.4741 27.7973C13.2839 28.3995 12.3245 29.376 11.7434 30.5766L12.9941 31.1742C14.3143 28.3949 17.2812 28.1934 18.7681 28.2629L18.8167 28.2629C17.8342 31.0315 17.5176 33.9927 17.8926 36.9064C17.705 37.094 17.1978 37.6013 16.503 38.3447C14.7867 39.9915 11.6392 42.3608 8.46385 41.5409L8.11644 42.8819C10.0465 43.3191 12.0703 43.0218 13.7931 42.0481C12.72 43.7039 12.0424 45.5845 11.8129 47.5442L13.2025 47.6415C13.4179 44.5634 15.9124 41.1796 17.5243 39.3036C17.7467 39.0882 17.9899 38.8658 18.1636 38.6852C18.357 39.6625 18.6076 40.6277 18.914 41.5757C19.31 42.8541 20.0952 46.5645 18.9835 48.4197L20.1716 49.1145C21.8253 46.3352 20.3036 41.3533 20.2342 41.1379C19.5834 39.1737 19.2184 37.1262 19.1502 35.0582L19.1502 34.9957C20.1014 36.5511 21.5189 37.7668 23.201 38.4698L23.6735 37.1635L23.6716 37.1628C23.4448 37.0768 18.8124 35.3208 19.6991 30.0833L19.6991 30.0207C20.039 28.736 20.5434 27.5006 21.2 26.3451L21.6377 25.8796C21.9087 27.2137 22.6869 28.6589 24.5073 28.9021L24.681 27.5124C22.9787 27.3248 22.9301 25.1639 22.9301 24.5455L28.6276 18.4936L28.6276 18.6256C29.1996 26.5189 29.0415 34.448 28.1551 42.3122C28.1551 42.4234 27.0226 53.2834 11.8615 52.9569ZM50.6813 52.9569C35.5133 53.2834 34.3947 42.4233 34.3877 42.3122C33.4949 34.451 33.3297 26.5241 33.8944 18.6325L33.8944 18.5006L39.6058 24.5455C39.6058 25.157 39.6058 27.3248 37.834 27.5402L38.0078 28.9299C39.8282 28.7006 40.6064 27.2414 40.8774 25.9074L41.3151 26.3729C41.9716 27.5284 42.4761 28.7638 42.8159 30.0485L42.8159 30.1111C43.6971 35.3498 39.0559 37.11 38.8424 37.191L38.8415 37.1913L39.314 38.4976C40.9962 37.7946 42.4137 36.5788 43.3649 35.0235L43.3648 35.086C43.2967 37.154 42.9316 39.2015 42.2809 41.1657C42.2114 41.3881 40.6898 46.3838 42.3435 49.1423L43.5316 48.4475C42.4199 46.5923 43.205 42.8889 43.6011 41.6035C43.9075 40.6555 44.1581 39.6903 44.3515 38.713C44.5252 38.8937 44.7684 39.116 44.9907 39.3314C46.6027 41.2144 49.1041 44.5912 49.3125 47.6693L50.7022 47.572C50.4716 45.6093 49.7916 43.7262 48.715 42.069C50.4379 43.0427 52.4616 43.3399 54.3917 42.9028L54.0443 41.5618C50.862 42.3817 47.7214 40.0123 46.0051 38.3656C45.359 37.6221 44.824 37.108 44.6155 36.9273C44.9862 34.0379 44.6769 31.1019 43.7122 28.3532L43.7748 28.3532C45.2617 28.2837 48.2286 28.513 49.5487 31.2645L50.7994 30.6669C50.2183 29.4663 49.2589 28.4898 48.0688 27.8876L48.1174 27.846C49.2569 26.9357 52.0084 27.4846 52.9812 27.7904L53.3911 26.4633C52.8631 26.2965 48.3606 24.9833 46.7208 27.2901L46.7208 27.3387C45.5927 27.0174 44.4141 26.9113 43.2467 27.0261L43.1633 27.0261C42.9688 26.6161 42.7812 26.2479 42.6005 25.9352L42.5519 25.7893C42.0586 24.3996 40.4674 21.7801 38.7303 19.1954L38.7859 19.1954C40.5275 18.6571 42.341 18.3876 44.1639 18.3964L44.2403 18.4658C44.9699 19.1051 46.6513 20.8838 46.165 21.94L47.4295 22.5167C48.0479 21.127 47.1933 19.6679 46.3387 18.6257L46.29 18.5701C48.0771 18.8097 49.7743 19.4981 51.2233 20.5712L52.1265 19.515C50.1437 18.0418 47.7702 17.1862 45.3034 17.0553L45.3034 16.9789C45.2726 15.4918 45.8498 14.0564 46.9015 13.0045L46.0468 11.8928C44.694 13.1973 43.9397 15.0024 43.9624 16.8816L43.9624 16.9581C43.137 16.9613 42.3128 17.0217 41.4957 17.1387L41.4471 17.1387L41.6208 16.8677C43.3965 13.8993 41.9197 9.27153 41.7879 8.85868C41.7846 8.84827 41.7822 8.84054 41.7806 8.83558L40.4674 9.28027C40.6897 9.98658 40.8569 10.709 40.9677 11.4412L40.8565 11.4412C40.0852 11.4412 38.5775 11.3856 38.0216 10.26L36.7779 10.8784C37.6186 12.5598 39.4807 12.8308 40.6133 12.8308L41.0719 12.8308C41.1613 13.9859 40.9203 15.1427 40.3771 16.166C39.8244 17.068 38.8908 17.669 37.841 17.7988L37.8062 17.7988C36.5208 15.895 35.284 14.144 34.5544 13.1227L34.5544 13.0323C34.9146 10.8507 35.449 8.70145 36.1525 6.6052C36.1525 6.55656 37.6117 1.97073 40.4465 1.4913C40.6003 1.46455 40.756 1.4506 40.9121 1.44961C42.6561 1.44961 44.7058 2.99907 46.8737 5.96597C52.8769 14.0398 65.0572 37.7125 59.9363 48.0723L59.9433 48.0723C58.3661 51.2129 55.2672 52.8874 50.6813 52.9569Z" id="Path-2396" fill="#1466CF" fill-rule="evenodd" stroke="none" />
  </g>
</svg>